<mxfile host="app.diagrams.net" modified="2024-06-14T15:57:24.834Z" agent="Mozilla/5.0 (Windows NT 10.0; Win64; x64) AppleWebKit/537.36 (KHTML, like Gecko) Chrome/121.0.0.0 Safari/537.36" etag="kYTmV-bMgPiymiWwP53L" version="24.5.4" type="device">
  <diagram name="PÃ¡gina-1" id="aICvx2AepVoI4X7LSClf">
    <mxGraphModel dx="989" dy="538" grid="1" gridSize="10" guides="1" tooltips="1" connect="1" arrows="1" fold="1" page="1" pageScale="1" pageWidth="827" pageHeight="1169" math="0" shadow="0">
      <root>
        <mxCell id="0" />
        <mxCell id="1" parent="0" />
        <mxCell id="3EkNj4FWYhJNI-6UvC9K-1" value="Mascotas" style="rounded=0;whiteSpace=wrap;html=1;" parent="1" vertex="1">
          <mxGeometry x="360" y="265" width="120" height="60" as="geometry" />
        </mxCell>
        <mxCell id="3EkNj4FWYhJNI-6UvC9K-2" value="id_mascota" style="ellipse;whiteSpace=wrap;html=1;fillColor=#dae8fc;strokeColor=#6c8ebf;fontStyle=5" parent="1" vertex="1">
          <mxGeometry x="294" y="170" width="96" height="50" as="geometry" />
        </mxCell>
        <mxCell id="3EkNj4FWYhJNI-6UvC9K-3" value="nombre" style="ellipse;whiteSpace=wrap;html=1;" parent="1" vertex="1">
          <mxGeometry x="414" y="170" width="96" height="50" as="geometry" />
        </mxCell>
        <mxCell id="3EkNj4FWYhJNI-6UvC9K-4" value="fotoURL" style="ellipse;whiteSpace=wrap;html=1;" parent="1" vertex="1">
          <mxGeometry x="520" y="170" width="96" height="50" as="geometry" />
        </mxCell>
        <mxCell id="3EkNj4FWYhJNI-6UvC9K-5" value="likes" style="ellipse;whiteSpace=wrap;html=1;" parent="1" vertex="1">
          <mxGeometry x="520" y="265" width="96" height="50" as="geometry" />
        </mxCell>
        <mxCell id="3EkNj4FWYhJNI-6UvC9K-6" value="descripcion" style="ellipse;whiteSpace=wrap;html=1;" parent="1" vertex="1">
          <mxGeometry x="230" y="308" width="96" height="50" as="geometry" />
        </mxCell>
        <mxCell id="3EkNj4FWYhJNI-6UvC9K-7" value="" style="endArrow=none;html=1;rounded=0;exitX=0.133;exitY=0.039;exitDx=0;exitDy=0;exitPerimeter=0;" parent="1" source="3EkNj4FWYhJNI-6UvC9K-1" target="3EkNj4FWYhJNI-6UvC9K-2" edge="1">
          <mxGeometry width="50" height="50" relative="1" as="geometry">
            <mxPoint x="340" y="290" as="sourcePoint" />
            <mxPoint x="390" y="240" as="targetPoint" />
          </mxGeometry>
        </mxCell>
        <mxCell id="3EkNj4FWYhJNI-6UvC9K-8" value="" style="endArrow=none;html=1;rounded=0;entryX=0.5;entryY=1;entryDx=0;entryDy=0;exitX=0.5;exitY=0;exitDx=0;exitDy=0;" parent="1" source="3EkNj4FWYhJNI-6UvC9K-1" target="3EkNj4FWYhJNI-6UvC9K-3" edge="1">
          <mxGeometry width="50" height="50" relative="1" as="geometry">
            <mxPoint x="420" y="270" as="sourcePoint" />
            <mxPoint x="470" y="220" as="targetPoint" />
          </mxGeometry>
        </mxCell>
        <mxCell id="3EkNj4FWYhJNI-6UvC9K-9" value="" style="endArrow=none;html=1;rounded=0;entryX=0.337;entryY=0.987;entryDx=0;entryDy=0;entryPerimeter=0;exitX=0.942;exitY=0.011;exitDx=0;exitDy=0;exitPerimeter=0;" parent="1" source="3EkNj4FWYhJNI-6UvC9K-1" target="3EkNj4FWYhJNI-6UvC9K-4" edge="1">
          <mxGeometry width="50" height="50" relative="1" as="geometry">
            <mxPoint x="500" y="280" as="sourcePoint" />
            <mxPoint x="550" y="230" as="targetPoint" />
          </mxGeometry>
        </mxCell>
        <mxCell id="3EkNj4FWYhJNI-6UvC9K-10" value="" style="endArrow=none;html=1;rounded=0;entryX=0;entryY=0.5;entryDx=0;entryDy=0;exitX=1;exitY=0.5;exitDx=0;exitDy=0;" parent="1" source="3EkNj4FWYhJNI-6UvC9K-1" target="3EkNj4FWYhJNI-6UvC9K-5" edge="1">
          <mxGeometry width="50" height="50" relative="1" as="geometry">
            <mxPoint x="470" y="370" as="sourcePoint" />
            <mxPoint x="520" y="320" as="targetPoint" />
          </mxGeometry>
        </mxCell>
        <mxCell id="3EkNj4FWYhJNI-6UvC9K-11" value="" style="endArrow=none;html=1;rounded=0;entryX=-0.006;entryY=0.444;entryDx=0;entryDy=0;entryPerimeter=0;exitX=1;exitY=0.5;exitDx=0;exitDy=0;" parent="1" source="3EkNj4FWYhJNI-6UvC9K-6" target="3EkNj4FWYhJNI-6UvC9K-1" edge="1">
          <mxGeometry width="50" height="50" relative="1" as="geometry">
            <mxPoint x="280" y="380" as="sourcePoint" />
            <mxPoint x="330" y="330" as="targetPoint" />
          </mxGeometry>
        </mxCell>
        <mxCell id="3EkNj4FWYhJNI-6UvC9K-12" value="PK" style="text;html=1;align=center;verticalAlign=middle;resizable=0;points=[];autosize=1;strokeColor=none;fillColor=none;" parent="1" vertex="1">
          <mxGeometry x="300" y="218" width="40" height="30" as="geometry" />
        </mxCell>
        <mxCell id="FHma5r10q59lhAc-srOq-1" value="Usuarios" style="rounded=0;whiteSpace=wrap;html=1;" parent="1" vertex="1">
          <mxGeometry x="180" y="460" width="120" height="60" as="geometry" />
        </mxCell>
        <mxCell id="FHma5r10q59lhAc-srOq-2" value="id_usuario" style="ellipse;whiteSpace=wrap;html=1;fillColor=#dae8fc;strokeColor=#6c8ebf;fontStyle=5" parent="1" vertex="1">
          <mxGeometry x="40" y="385" width="120" height="60" as="geometry" />
        </mxCell>
        <mxCell id="FHma5r10q59lhAc-srOq-3" value="nombre" style="ellipse;whiteSpace=wrap;html=1;" parent="1" vertex="1">
          <mxGeometry x="414" y="550" width="120" height="60" as="geometry" />
        </mxCell>
        <mxCell id="FHma5r10q59lhAc-srOq-4" value="email" style="ellipse;whiteSpace=wrap;html=1;" parent="1" vertex="1">
          <mxGeometry x="280" y="610" width="120" height="60" as="geometry" />
        </mxCell>
        <mxCell id="FHma5r10q59lhAc-srOq-5" value="clave" style="ellipse;whiteSpace=wrap;html=1;" parent="1" vertex="1">
          <mxGeometry x="60" y="620" width="120" height="60" as="geometry" />
        </mxCell>
        <mxCell id="FHma5r10q59lhAc-srOq-6" value="" style="endArrow=none;html=1;rounded=0;exitX=0.667;exitY=0.917;exitDx=0;exitDy=0;exitPerimeter=0;entryX=0;entryY=0.5;entryDx=0;entryDy=0;" parent="1" source="FHma5r10q59lhAc-srOq-2" edge="1" target="FHma5r10q59lhAc-srOq-1">
          <mxGeometry width="50" height="50" relative="1" as="geometry">
            <mxPoint x="180" y="460" as="sourcePoint" />
            <mxPoint x="230" y="410" as="targetPoint" />
          </mxGeometry>
        </mxCell>
        <mxCell id="FHma5r10q59lhAc-srOq-7" value="" style="endArrow=none;html=1;rounded=0;exitX=1;exitY=0.25;exitDx=0;exitDy=0;" parent="1" source="FHma5r10q59lhAc-srOq-1" target="FHma5r10q59lhAc-srOq-3" edge="1">
          <mxGeometry width="50" height="50" relative="1" as="geometry">
            <mxPoint x="350" y="420" as="sourcePoint" />
            <mxPoint x="400" y="370" as="targetPoint" />
          </mxGeometry>
        </mxCell>
        <mxCell id="FHma5r10q59lhAc-srOq-8" value="" style="endArrow=none;html=1;rounded=0;entryX=0;entryY=0.5;entryDx=0;entryDy=0;exitX=1;exitY=0.75;exitDx=0;exitDy=0;" parent="1" source="FHma5r10q59lhAc-srOq-1" target="FHma5r10q59lhAc-srOq-4" edge="1">
          <mxGeometry width="50" height="50" relative="1" as="geometry">
            <mxPoint x="310" y="520" as="sourcePoint" />
            <mxPoint x="360" y="470" as="targetPoint" />
          </mxGeometry>
        </mxCell>
        <mxCell id="FHma5r10q59lhAc-srOq-9" value="" style="endArrow=none;html=1;rounded=0;entryX=0.5;entryY=1;entryDx=0;entryDy=0;" parent="1" source="FHma5r10q59lhAc-srOq-5" target="FHma5r10q59lhAc-srOq-1" edge="1">
          <mxGeometry width="50" height="50" relative="1" as="geometry">
            <mxPoint x="180" y="550" as="sourcePoint" />
            <mxPoint x="230" y="500" as="targetPoint" />
          </mxGeometry>
        </mxCell>
        <mxCell id="gmf0Ef4JrBvEFyx4NPX_-1" value="tiene" style="rhombus;whiteSpace=wrap;html=1;" vertex="1" parent="1">
          <mxGeometry x="380" y="385" width="80" height="80" as="geometry" />
        </mxCell>
        <mxCell id="gmf0Ef4JrBvEFyx4NPX_-2" value="" style="endArrow=none;html=1;rounded=0;entryX=0;entryY=0.5;entryDx=0;entryDy=0;exitX=0.425;exitY=-0.017;exitDx=0;exitDy=0;exitPerimeter=0;" edge="1" parent="1" source="FHma5r10q59lhAc-srOq-1" target="gmf0Ef4JrBvEFyx4NPX_-1">
          <mxGeometry width="50" height="50" relative="1" as="geometry">
            <mxPoint x="290" y="420" as="sourcePoint" />
            <mxPoint x="340" y="370" as="targetPoint" />
            <Array as="points">
              <mxPoint x="231" y="425" />
            </Array>
          </mxGeometry>
        </mxCell>
        <mxCell id="gmf0Ef4JrBvEFyx4NPX_-3" value="" style="endArrow=none;html=1;rounded=0;entryX=0.5;entryY=1;entryDx=0;entryDy=0;" edge="1" parent="1" source="gmf0Ef4JrBvEFyx4NPX_-1" target="3EkNj4FWYhJNI-6UvC9K-1">
          <mxGeometry width="50" height="50" relative="1" as="geometry">
            <mxPoint x="390" y="430" as="sourcePoint" />
            <mxPoint x="440" y="380" as="targetPoint" />
          </mxGeometry>
        </mxCell>
        <mxCell id="gmf0Ef4JrBvEFyx4NPX_-4" value="n" style="text;html=1;align=center;verticalAlign=middle;resizable=0;points=[];autosize=1;strokeColor=none;fillColor=none;" vertex="1" parent="1">
          <mxGeometry x="425" y="328" width="30" height="30" as="geometry" />
        </mxCell>
        <mxCell id="gmf0Ef4JrBvEFyx4NPX_-5" value="1" style="text;html=1;align=center;verticalAlign=middle;resizable=0;points=[];autosize=1;strokeColor=none;fillColor=none;" vertex="1" parent="1">
          <mxGeometry x="235" y="428" width="30" height="30" as="geometry" />
        </mxCell>
        <mxCell id="gmf0Ef4JrBvEFyx4NPX_-6" value="id_usuario" style="ellipse;whiteSpace=wrap;html=1;fillColor=#f5f5f5;strokeColor=#666666;fontStyle=0;fontColor=#333333;" vertex="1" parent="1">
          <mxGeometry x="140" y="248" width="120" height="60" as="geometry" />
        </mxCell>
        <mxCell id="gmf0Ef4JrBvEFyx4NPX_-7" value="" style="endArrow=none;html=1;rounded=0;entryX=0;entryY=0.25;entryDx=0;entryDy=0;" edge="1" parent="1" source="gmf0Ef4JrBvEFyx4NPX_-6" target="3EkNj4FWYhJNI-6UvC9K-1">
          <mxGeometry width="50" height="50" relative="1" as="geometry">
            <mxPoint x="120" y="230" as="sourcePoint" />
            <mxPoint x="170" y="180" as="targetPoint" />
          </mxGeometry>
        </mxCell>
        <mxCell id="gmf0Ef4JrBvEFyx4NPX_-8" value="FK" style="text;html=1;align=center;verticalAlign=middle;resizable=0;points=[];autosize=1;strokeColor=none;fillColor=none;" vertex="1" parent="1">
          <mxGeometry x="120" y="288" width="40" height="30" as="geometry" />
        </mxCell>
      </root>
    </mxGraphModel>
  </diagram>
</mxfile>
